# xmcd
#
# Track frame offsets: 
#        150
#        12876
#        27541
#        43347
#        67765
#        78340
#        101838
#        118985
#        134022
#        145877
#        158053
#        167922
#        196728
#        214419
#        227889
#        241838
#        261361
#        274045
#        287747
#        300022
#        310866
#        320509
#        334211
#
# Disc length: 4615 seconds
#
# Revision: 0
# Processed by: cddbd v1.5.2PL0 Copyright (c) Steve Scherf et al.
# Submitted via: ExactAudioCopyFreeDBPlugin 1.0
#
DISCID=53120517
DTITLE=The Animals - Animalism
DYEAR=1966
DGENRE=Soul
TTITLE0=All Night Long
TTITLE1=Shake
TTITLE2=The Other Side of Life
TTITLE3=Rock Me Baby
TTITLE4=Lucille
TTITLE5=Smokestack Lightning
TTITLE6=Hey Gyp
TTITLE7=Hit The Road, Jack
TTITLE8=Outcase
TTITLE9=Louisiana Blues
TTITLE10=That's All I Am To You
TTITLE11=Going Down Slow
TTITLE12=C.C. Rider (Live, Germany, 1967)
TTITLE13=A Love Like Yours (Live, Germany, 1967)
TTITLE14=Shake, Rattle, and Roll (Live, Germany, 1967)
TTITLE15=Tobacco Road (Live, Germany, 1967)
TTITLE16=Roadrunner (Live, Germany, 1967)
TTITLE17=When I Was Young (BBC Session 1967)
TTITLE18=A Love Like Yours (BBC Session 1967)
TTITLE19=Connection (BBC Session 1967)
TTITLE20=It's All Meat (BBC Session 1967)
TTITLE21=San Franciscan Nights (BBC Session 1967)
TTITLE22=All Night Long (BBC Session 1967)
EXTD=
EXTT0=
EXTT1=
EXTT2=
EXTT3=
EXTT4=
EXTT5=
EXTT6=
EXTT7=
EXTT8=
EXTT9=
EXTT10=
EXTT11=
EXTT12=
EXTT13=
EXTT14=
EXTT15=
EXTT16=
EXTT17=
EXTT18=
EXTT19=
EXTT20=
EXTT21=
EXTT22=
PLAYORDER=
